<?xml version="1.0" encoding="utf-8"?>
<!-- Generator: Adobe Illustrator 23.0.5, SVG Export Plug-In . SVG Version: 6.00 Build 0)  -->
<svg version="1.1" id="Capa_1" xmlns="http://www.w3.org/2000/svg" xmlns:xlink="http://www.w3.org/1999/xlink" x="0px" y="0px"
	 viewBox="0 0 218 200" style="enable-background:new 0 0 218 200;" xml:space="preserve">
<style type="text/css">
	.st0{fill:#286090;}
</style>
<path class="st0" d="M51.9,193.8c-11.7-4.6-17.4-23.3-26.3-39.8C16.8,137.3,4.8,122.6,4,107.5c-0.8-15.2,9.5-30.8,18.5-47.3
	c8.9-16.4,16.5-33.6,29-43.8S81.4,3.1,96,8.8c14.4,5.7,25.8,20.1,41.6,28.4c15.8,8.1,35.9,9.8,48.2,20.5
	c12.2,10.7,16.5,30.5,14.9,49.3c-1.5,18.8-8.9,36.7-17.4,54.4c-8.6,17.7-18.2,35.1-32.4,38.2c-14.2,3-33-8.5-51.3-9.6
	C81.3,188.9,63.6,198.4,51.9,193.8z"/>
</svg>
